<svg width="148" height="100" viewBox="0 0 148 100" fill="none" xmlns="http://www.w3.org/2000/svg">
<path d="M5.33 15V5.2H8.676C11.546 5.2 13.576 7.16 13.576 10.1C13.576 12.83 11.644 15 8.676 15H5.33ZM6.772 13.67H8.592C10.706 13.67 12.078 12.13 12.078 10.1C12.078 8.084 10.706 6.53 8.592 6.53H6.772V13.67ZM17.3229 15.14C15.8809 15.14 14.8309 14.216 14.8309 12.9C14.8309 11.64 15.7129 10.73 17.3369 10.618L19.4649 10.478V10.394C19.4649 9.708 18.8349 8.924 17.6869 8.924C16.5809 8.924 16.0629 9.638 15.8809 10.17L14.7749 9.61C15.0969 8.714 15.9929 7.664 17.7009 7.664C19.7449 7.664 20.8509 9.078 20.8509 10.45V15H19.4649V14.174C19.0869 14.748 18.2469 15.14 17.3229 15.14ZM16.2309 12.872C16.2309 13.516 16.7629 13.908 17.4629 13.908C18.7369 13.908 19.4929 13.04 19.4929 12.102V11.654L17.4349 11.794C16.7489 11.836 16.2309 12.186 16.2309 12.872ZM23.0585 15V7.79H24.4585V15H23.0585ZM22.7365 5.578C22.7365 4.99 23.1705 4.556 23.7585 4.556C24.3465 4.556 24.7805 4.99 24.7805 5.578C24.7805 6.152 24.3465 6.6 23.7585 6.6C23.1705 6.6 22.7365 6.152 22.7365 5.578ZM26.6652 15V4.64H28.0652V15H26.6652ZM31.0332 18.206L32.4332 14.944L29.3812 7.79H30.9492L33.2172 13.32L35.3872 7.79H36.9972L32.6012 18.206H31.0332Z" fill="#F0F4FC"/>
<circle cx="134" cy="10" r="10" fill="#0B4EFF"/>
<g clip-path="url(#clip0_67842_142056)">
<path d="M133.038 13.131C133.338 13.131 133.576 13.0225 133.753 12.8056L137.786 7.71148C137.839 7.64544 137.887 7.57351 137.931 7.49569C137.975 7.41786 137.997 7.33885 137.997 7.25867C137.997 7.10302 137.924 6.97802 137.777 6.88369C137.63 6.78935 137.465 6.74219 137.283 6.74219C137.036 6.74219 136.83 6.84831 136.665 7.06056L133.003 11.7726L131.264 9.96845C131.158 9.85524 131.054 9.77859 130.951 9.73849C130.848 9.6984 130.735 9.67835 130.611 9.67835C130.423 9.67835 130.263 9.73378 130.13 9.84463C129.998 9.95548 129.932 10.0887 129.932 10.2443C129.932 10.3906 129.999 10.5368 130.135 10.683L132.288 12.8056C132.4 12.9188 132.516 13.0013 132.636 13.0532C132.757 13.1051 132.891 13.131 133.038 13.131Z" fill="#F0F4FC"/>
</g>
<path d="M4 30H144" stroke="#11284A"/>
<path d="M6.828 55L4.35 45.2H5.848L7.724 52.802L9.712 45.2H11.336L13.352 52.802L15.214 45.2H16.726L14.22 55H12.554L10.538 47.398L8.48 55H6.828ZM20.8195 55.126C18.6075 55.126 17.1655 53.502 17.1655 51.402C17.1655 49.274 18.6215 47.664 20.8055 47.664C22.9195 47.664 24.2495 49.33 24.2495 51.234V51.892H18.5795C18.7615 53.264 19.6855 53.866 20.8195 53.866C21.9675 53.866 22.7095 53.166 22.9335 52.536L24.0115 53.11C23.7035 53.908 22.7235 55.126 20.8195 55.126ZM18.6215 50.716H22.7935C22.7795 49.82 22.0235 48.896 20.7915 48.896C19.7275 48.896 18.8595 49.526 18.6215 50.716ZM29.0226 55.126C26.8106 55.126 25.3686 53.502 25.3686 51.402C25.3686 49.274 26.8246 47.664 29.0086 47.664C31.1226 47.664 32.4526 49.33 32.4526 51.234V51.892H26.7826C26.9646 53.264 27.8886 53.866 29.0226 53.866C30.1706 53.866 30.9126 53.166 31.1366 52.536L32.2146 53.11C31.9066 53.908 30.9266 55.126 29.0226 55.126ZM26.8246 50.716H30.9966C30.9826 49.82 30.2266 48.896 28.9946 48.896C27.9306 48.896 27.0626 49.526 26.8246 50.716ZM34.2017 55V44.64H35.6017V50.24H36.7497L38.6257 47.79H40.2917L37.8837 50.968L40.3617 55H38.7237L36.5957 51.584H35.6017V55H34.2017ZM41.6223 55V44.64H43.0223V55H41.6223ZM45.9903 58.206L47.3903 54.944L44.3383 47.79H45.9063L48.1743 53.32L50.3443 47.79H51.9543L47.5583 58.206H45.9903Z" fill="#F0F4FC"/>
<path d="M4 70H144" stroke="#11284A"/>
<path d="M5.33 95V85.2H7.29L10.258 93.04L13.226 85.2H15.172V95H13.772V87.594L10.944 95H9.544L6.73 87.594V95H5.33ZM20.8501 95.126C18.6381 95.126 17.0561 93.558 17.0561 91.402C17.0561 89.246 18.6521 87.664 20.8501 87.664C23.0481 87.664 24.6441 89.246 24.6441 91.402C24.6441 93.544 23.0621 95.126 20.8501 95.126ZM18.4701 91.402C18.4701 92.83 19.5201 93.838 20.8501 93.838C22.1941 93.838 23.2301 92.83 23.2301 91.402C23.2301 89.974 22.1941 88.966 20.8501 88.966C19.5061 88.966 18.4701 89.974 18.4701 91.402ZM26.3951 95V87.79H27.7951V88.686C28.1731 88.084 28.8871 87.664 29.8671 87.664C31.4631 87.664 32.5831 88.854 32.5831 90.408V95H31.1831V90.744C31.1831 89.624 30.4411 88.98 29.4891 88.98C28.5231 88.98 27.7951 89.68 27.7951 90.744V95H26.3951ZM35.293 95V89.022H34.005V87.79H35.335V85.928H36.693V87.79H38.555V89.022H36.693V93.684H38.583V95H35.293ZM40.4224 95V84.64H41.8224V88.686C42.2284 88.07 42.9424 87.664 43.9224 87.664C45.5184 87.664 46.6104 88.854 46.6104 90.408V95H45.2104V90.744C45.2104 89.624 44.4684 88.98 43.5164 88.98C42.5504 88.98 41.8224 89.68 41.8224 90.744V95H40.4224ZM48.7043 95V84.64H50.1043V95H48.7043ZM53.0723 98.206L54.4723 94.944L51.4203 87.79H52.9883L55.2563 93.32L57.4263 87.79H59.0363L54.6403 98.206H53.0723Z" fill="#F0F4FC"/>
<defs>
<clipPath id="clip0_67842_142056">
<rect width="14.6667" height="14.6667" fill="white" transform="translate(126.666 2.5957)"/>
</clipPath>
</defs>
</svg>
