<svg width="148" height="352" viewBox="0 0 148 352" fill="none" xmlns="http://www.w3.org/2000/svg">
<path d="M4.35 18.25L7.822 8.45H9.74L13.198 18.25H11.672L10.762 15.632H6.758L5.848 18.25H4.35ZM7.234 14.274H10.286L8.76 9.864L7.234 14.274ZM14.593 18.25V7.89H15.993V18.25H14.593ZM18.093 18.25V7.89H19.493V18.25H18.093Z" fill="#F0F4FC"/>
<circle cx="134" cy="13.25" r="10" fill="#0B4EFF"/>
<g clip-path="url(#clip0_67842_141862)">
<path d="M133.038 16.381C133.338 16.381 133.576 16.2725 133.753 16.0556L137.786 10.9615C137.839 10.8954 137.887 10.8235 137.931 10.7457C137.975 10.6679 137.997 10.5889 137.997 10.5087C137.997 10.353 137.924 10.228 137.777 10.1337C137.63 10.0394 137.465 9.99219 137.283 9.99219C137.036 9.99219 136.83 10.0983 136.665 10.3106L133.003 15.0226L131.264 13.2184C131.158 13.1052 131.054 13.0286 130.951 12.9885C130.848 12.9484 130.735 12.9284 130.611 12.9284C130.423 12.9284 130.263 12.9838 130.13 13.0946C129.998 13.2055 129.932 13.3387 129.932 13.4943C129.932 13.6406 129.999 13.7868 130.135 13.933L132.288 16.0556C132.4 16.1688 132.516 16.2513 132.636 16.3032C132.757 16.3551 132.891 16.381 133.038 16.381Z" fill="#F0F4FC"/>
</g>
<path d="M4 36.5H144" stroke="#11284A"/>
<path d="M7.458 64.75V56.672L5.792 58.142H4.798V56.588H5.568L7.444 54.95H8.872V64.75H7.458ZM17.8087 64.876C15.8347 64.876 14.2807 63.476 14.2807 61.138C14.2807 58.982 15.8067 57.414 17.8087 57.414C18.8167 57.414 19.7827 57.876 20.2027 58.492V54.39H21.6027V64.75H20.2027V63.84C19.7547 64.442 18.7607 64.876 17.8087 64.876ZM15.6947 61.138C15.6947 62.482 16.5627 63.588 17.9627 63.588C19.3627 63.588 20.2307 62.482 20.2307 61.138C20.2307 59.822 19.3627 58.716 17.9627 58.716C16.5627 58.716 15.6947 59.808 15.6947 61.138ZM25.8404 64.89C24.3984 64.89 23.3484 63.966 23.3484 62.65C23.3484 61.39 24.2304 60.48 25.8544 60.368L27.9824 60.228V60.144C27.9824 59.458 27.3524 58.674 26.2044 58.674C25.0984 58.674 24.5804 59.388 24.3984 59.92L23.2924 59.36C23.6144 58.464 24.5104 57.414 26.2184 57.414C28.2624 57.414 29.3684 58.828 29.3684 60.2V64.75H27.9824V63.924C27.6044 64.498 26.7644 64.89 25.8404 64.89ZM24.7484 62.622C24.7484 63.266 25.2804 63.658 25.9804 63.658C27.2544 63.658 28.0104 62.79 28.0104 61.852V61.404L25.9524 61.544C25.2664 61.586 24.7484 61.936 24.7484 62.622ZM32.1543 67.956L33.5543 64.694L30.5023 57.54H32.0703L34.3383 63.07L36.5083 57.54H38.1183L33.7223 67.956H32.1543Z" fill="#F0F4FC"/>
<path d="M4 83H144" stroke="#11284A"/>
<path d="M6.352 111.25V109.486L9.6 102.822H6.044V103.956H4.63V101.45H11.126V102.878L7.822 109.724V111.25H6.352ZM19.2579 111.376C17.2839 111.376 15.7299 109.976 15.7299 107.638C15.7299 105.482 17.2559 103.914 19.2579 103.914C20.2659 103.914 21.2319 104.376 21.6519 104.992V100.89H23.0519V111.25H21.6519V110.34C21.2039 110.942 20.2099 111.376 19.2579 111.376ZM17.1439 107.638C17.1439 108.982 18.0119 110.088 19.4119 110.088C20.8119 110.088 21.6799 108.982 21.6799 107.638C21.6799 106.322 20.8119 105.216 19.4119 105.216C18.0119 105.216 17.1439 106.308 17.1439 107.638ZM27.2897 111.39C25.8477 111.39 24.7977 110.466 24.7977 109.15C24.7977 107.89 25.6797 106.98 27.3037 106.868L29.4317 106.728V106.644C29.4317 105.958 28.8017 105.174 27.6537 105.174C26.5477 105.174 26.0297 105.888 25.8477 106.42L24.7417 105.86C25.0637 104.964 25.9597 103.914 27.6677 103.914C29.7117 103.914 30.8177 105.328 30.8177 106.7V111.25H29.4317V110.424C29.0537 110.998 28.2137 111.39 27.2897 111.39ZM26.1977 109.122C26.1977 109.766 26.7297 110.158 27.4297 110.158C28.7037 110.158 29.4597 109.29 29.4597 108.352V107.904L27.4017 108.044C26.7157 108.086 26.1977 108.436 26.1977 109.122ZM33.6035 114.456L35.0035 111.194L31.9515 104.04H33.5195L35.7875 109.57L37.9575 104.04H39.5675L35.1715 114.456H33.6035ZM43.4056 111.376C41.5576 111.376 40.6056 110.298 40.3256 109.43L41.5016 108.842C41.6696 109.416 42.3276 110.13 43.4336 110.13C44.3856 110.13 44.9316 109.752 44.9316 109.22C44.9316 108.8 44.6376 108.492 44.0216 108.366L42.6216 108.1C41.5016 107.876 40.7176 107.232 40.7176 106.056C40.7176 104.81 41.8516 103.914 43.4616 103.914C45.2536 103.914 46.0376 104.922 46.2896 105.692L45.1276 106.252C45.0156 105.72 44.4416 105.132 43.4476 105.132C42.5936 105.132 42.0756 105.524 42.0756 106.028C42.0756 106.49 42.4116 106.742 42.9296 106.84L44.3996 107.134C45.6876 107.386 46.3596 108.184 46.3596 109.178C46.3596 110.48 45.1976 111.376 43.4056 111.376Z" fill="#F0F4FC"/>
<path d="M4 129.5H144" stroke="#11284A"/>
<path d="M8.144 156.574C9.46 156.574 10.09 155.874 10.09 154.936C10.09 153.97 9.39 153.27 8.172 153.27H7.416V152.024H8.172C9.166 152.024 9.782 151.436 9.782 150.54C9.782 149.882 9.236 149.126 8.116 149.126C6.926 149.126 6.324 149.924 6.226 150.848L5.036 150.302C5.246 149.028 6.226 147.824 8.13 147.824C10.034 147.824 11.238 149.042 11.238 150.498C11.238 151.632 10.608 152.262 10.09 152.542C11.014 153.004 11.546 153.816 11.546 154.922C11.546 156.532 10.384 157.876 8.172 157.876C6.198 157.876 5.092 156.56 4.91 155.398L6.1 154.838C6.226 155.762 6.912 156.574 8.144 156.574ZM16.8455 157.876C14.4515 157.876 13.3455 155.846 13.3455 152.836C13.3455 149.854 14.4515 147.824 16.8455 147.824C19.2395 147.824 20.3315 149.854 20.3315 152.836C20.3315 155.846 19.2395 157.876 16.8455 157.876ZM14.7875 152.836C14.7875 154.978 15.3475 156.56 16.8455 156.56C18.3295 156.56 18.8895 154.978 18.8895 152.836C18.8895 150.708 18.3155 149.14 16.8455 149.14C15.3615 149.14 14.7875 150.708 14.7875 152.836ZM28.7462 157.876C26.7722 157.876 25.2182 156.476 25.2182 154.138C25.2182 151.982 26.7442 150.414 28.7462 150.414C29.7542 150.414 30.7202 150.876 31.1402 151.492V147.39H32.5402V157.75H31.1402V156.84C30.6922 157.442 29.6982 157.876 28.7462 157.876ZM26.6322 154.138C26.6322 155.482 27.5002 156.588 28.9002 156.588C30.3002 156.588 31.1682 155.482 31.1682 154.138C31.1682 152.822 30.3002 151.716 28.9002 151.716C27.5002 151.716 26.6322 152.808 26.6322 154.138ZM36.7779 157.89C35.3359 157.89 34.2859 156.966 34.2859 155.65C34.2859 154.39 35.1679 153.48 36.7919 153.368L38.9199 153.228V153.144C38.9199 152.458 38.2899 151.674 37.1419 151.674C36.0359 151.674 35.5179 152.388 35.3359 152.92L34.2299 152.36C34.5519 151.464 35.4479 150.414 37.1559 150.414C39.1999 150.414 40.3059 151.828 40.3059 153.2V157.75H38.9199V156.924C38.5419 157.498 37.7019 157.89 36.7779 157.89ZM35.6859 155.622C35.6859 156.266 36.2179 156.658 36.9179 156.658C38.1919 156.658 38.9479 155.79 38.9479 154.852V154.404L36.8899 154.544C36.2039 154.586 35.6859 154.936 35.6859 155.622ZM43.0918 160.956L44.4918 157.694L41.4398 150.54H43.0078L45.2758 156.07L47.4458 150.54H49.0558L44.6598 160.956H43.0918ZM52.8939 157.876C51.0459 157.876 50.0939 156.798 49.8139 155.93L50.9899 155.342C51.1579 155.916 51.8159 156.63 52.9219 156.63C53.8739 156.63 54.4199 156.252 54.4199 155.72C54.4199 155.3 54.1259 154.992 53.5099 154.866L52.1099 154.6C50.9899 154.376 50.2059 153.732 50.2059 152.556C50.2059 151.31 51.3399 150.414 52.9499 150.414C54.7419 150.414 55.5259 151.422 55.7779 152.192L54.6159 152.752C54.5039 152.22 53.9299 151.632 52.9359 151.632C52.0819 151.632 51.5639 152.024 51.5639 152.528C51.5639 152.99 51.8999 153.242 52.4179 153.34L53.8879 153.634C55.1759 153.886 55.8479 154.684 55.8479 155.678C55.8479 156.98 54.6859 157.876 52.8939 157.876Z" fill="#F0F4FC"/>
<path d="M4 176H144" stroke="#11284A"/>
<path d="M8.13 203.088C9.88 203.088 10.398 201.156 10.398 199.644C9.922 200.274 9.124 200.694 8.102 200.694C6.086 200.694 4.91 199.196 4.91 197.572C4.91 195.85 6.17 194.324 8.27 194.324C10.79 194.324 11.798 196.424 11.798 199.196C11.798 201.94 10.86 204.376 8.13 204.376C6.184 204.376 5.218 203.074 4.994 201.94L6.198 201.338C6.324 202.248 6.954 203.088 8.13 203.088ZM6.338 197.572C6.338 198.482 7.01 199.434 8.256 199.434C9.544 199.434 10.188 198.482 10.188 197.572C10.188 196.564 9.502 195.612 8.256 195.612C7.066 195.612 6.338 196.48 6.338 197.572ZM17.119 204.376C14.725 204.376 13.619 202.346 13.619 199.336C13.619 196.354 14.725 194.324 17.119 194.324C19.513 194.324 20.605 196.354 20.605 199.336C20.605 202.346 19.513 204.376 17.119 204.376ZM15.061 199.336C15.061 201.478 15.621 203.06 17.119 203.06C18.603 203.06 19.163 201.478 19.163 199.336C19.163 197.208 18.589 195.64 17.119 195.64C15.635 195.64 15.061 197.208 15.061 199.336ZM29.0196 204.376C27.0456 204.376 25.4916 202.976 25.4916 200.638C25.4916 198.482 27.0176 196.914 29.0196 196.914C30.0276 196.914 30.9936 197.376 31.4136 197.992V193.89H32.8136V204.25H31.4136V203.34C30.9656 203.942 29.9716 204.376 29.0196 204.376ZM26.9056 200.638C26.9056 201.982 27.7736 203.088 29.1736 203.088C30.5736 203.088 31.4416 201.982 31.4416 200.638C31.4416 199.322 30.5736 198.216 29.1736 198.216C27.7736 198.216 26.9056 199.308 26.9056 200.638ZM37.0514 204.39C35.6094 204.39 34.5594 203.466 34.5594 202.15C34.5594 200.89 35.4414 199.98 37.0654 199.868L39.1934 199.728V199.644C39.1934 198.958 38.5634 198.174 37.4154 198.174C36.3094 198.174 35.7914 198.888 35.6094 199.42L34.5034 198.86C34.8254 197.964 35.7214 196.914 37.4294 196.914C39.4734 196.914 40.5794 198.328 40.5794 199.7V204.25H39.1934V203.424C38.8154 203.998 37.9754 204.39 37.0514 204.39ZM35.9594 202.122C35.9594 202.766 36.4914 203.158 37.1914 203.158C38.4654 203.158 39.2214 202.29 39.2214 201.352V200.904L37.1634 201.044C36.4774 201.086 35.9594 201.436 35.9594 202.122ZM43.3653 207.456L44.7653 204.194L41.7133 197.04H43.2813L45.5493 202.57L47.7193 197.04H49.3293L44.9333 207.456H43.3653ZM53.1673 204.376C51.3193 204.376 50.3673 203.298 50.0873 202.43L51.2633 201.842C51.4313 202.416 52.0893 203.13 53.1953 203.13C54.1473 203.13 54.6933 202.752 54.6933 202.22C54.6933 201.8 54.3993 201.492 53.7833 201.366L52.3833 201.1C51.2633 200.876 50.4793 200.232 50.4793 199.056C50.4793 197.81 51.6133 196.914 53.2233 196.914C55.0153 196.914 55.7993 197.922 56.0513 198.692L54.8893 199.252C54.7773 198.72 54.2033 198.132 53.2093 198.132C52.3553 198.132 51.8373 198.524 51.8373 199.028C51.8373 199.49 52.1733 199.742 52.6913 199.84L54.1613 200.134C55.4493 200.386 56.1213 201.184 56.1213 202.178C56.1213 203.48 54.9593 204.376 53.1673 204.376Z" fill="#F0F4FC"/>
<path d="M4 222.5H144" stroke="#11284A"/>
<path d="M7.808 250.75V246.732L4.35 240.95H6.016L8.536 245.304L11.084 240.95H12.736L9.264 246.732V250.75H7.808ZM15.8292 250.876C13.6172 250.876 12.1752 249.252 12.1752 247.152C12.1752 245.024 13.6312 243.414 15.8152 243.414C17.9292 243.414 19.2592 245.08 19.2592 246.984V247.642H13.5892C13.7712 249.014 14.6952 249.616 15.8292 249.616C16.9772 249.616 17.7192 248.916 17.9432 248.286L19.0212 248.86C18.7132 249.658 17.7332 250.876 15.8292 250.876ZM13.6312 246.466H17.8032C17.7892 245.57 17.0332 244.646 15.8012 244.646C14.7372 244.646 13.8692 245.276 13.6312 246.466ZM23.0104 250.89C21.5684 250.89 20.5184 249.966 20.5184 248.65C20.5184 247.39 21.4004 246.48 23.0244 246.368L25.1524 246.228V246.144C25.1524 245.458 24.5224 244.674 23.3744 244.674C22.2684 244.674 21.7504 245.388 21.5684 245.92L20.4624 245.36C20.7844 244.464 21.6804 243.414 23.3884 243.414C25.4324 243.414 26.5384 244.828 26.5384 246.2V250.75H25.1524V249.924C24.7744 250.498 23.9344 250.89 23.0104 250.89ZM21.9184 248.622C21.9184 249.266 22.4504 249.658 23.1504 249.658C24.4244 249.658 25.1804 248.79 25.1804 247.852V247.404L23.1224 247.544C22.4364 247.586 21.9184 247.936 21.9184 248.622ZM28.774 250.75V243.54H30.174V244.828L32.904 243.386V244.898L30.174 246.256V250.75H28.774ZM38.4101 250.75V244.772H37.1221V243.54H38.4521V241.678H39.8101V243.54H41.6721V244.772H39.8101V249.434H41.7001V250.75H38.4101ZM46.7036 250.876C44.4916 250.876 42.9096 249.308 42.9096 247.152C42.9096 244.996 44.5056 243.414 46.7036 243.414C48.9016 243.414 50.4976 244.996 50.4976 247.152C50.4976 249.294 48.9156 250.876 46.7036 250.876ZM44.3236 247.152C44.3236 248.58 45.3736 249.588 46.7036 249.588C48.0476 249.588 49.0836 248.58 49.0836 247.152C49.0836 245.724 48.0476 244.716 46.7036 244.716C45.3596 244.716 44.3236 245.724 44.3236 247.152ZM58.5646 250.876C56.5906 250.876 55.0366 249.476 55.0366 247.138C55.0366 244.982 56.5626 243.414 58.5646 243.414C59.5726 243.414 60.5386 243.876 60.9586 244.492V240.39H62.3586V250.75H60.9586V249.84C60.5106 250.442 59.5166 250.876 58.5646 250.876ZM56.4506 247.138C56.4506 248.482 57.3186 249.588 58.7186 249.588C60.1186 249.588 60.9866 248.482 60.9866 247.138C60.9866 245.822 60.1186 244.716 58.7186 244.716C57.3186 244.716 56.4506 245.808 56.4506 247.138ZM66.5963 250.89C65.1543 250.89 64.1043 249.966 64.1043 248.65C64.1043 247.39 64.9863 246.48 66.6103 246.368L68.7383 246.228V246.144C68.7383 245.458 68.1083 244.674 66.9603 244.674C65.8543 244.674 65.3363 245.388 65.1543 245.92L64.0483 245.36C64.3703 244.464 65.2663 243.414 66.9743 243.414C69.0183 243.414 70.1243 244.828 70.1243 246.2V250.75H68.7383V249.924C68.3603 250.498 67.5203 250.89 66.5963 250.89ZM65.5043 248.622C65.5043 249.266 66.0363 249.658 66.7363 249.658C68.0103 249.658 68.7663 248.79 68.7663 247.852V247.404L66.7083 247.544C66.0223 247.586 65.5043 247.936 65.5043 248.622ZM72.8359 250.75V244.772H71.5479V243.54H72.8779V241.678H74.2359V243.54H76.0979V244.772H74.2359V249.434H76.1259V250.75H72.8359ZM80.9894 250.876C78.7774 250.876 77.3354 249.252 77.3354 247.152C77.3354 245.024 78.7914 243.414 80.9754 243.414C83.0894 243.414 84.4194 245.08 84.4194 246.984V247.642H78.7494C78.9314 249.014 79.8554 249.616 80.9894 249.616C82.1374 249.616 82.8794 248.916 83.1034 248.286L84.1814 248.86C83.8734 249.658 82.8934 250.876 80.9894 250.876ZM78.7914 246.466H82.9634C82.9494 245.57 82.1934 244.646 80.9614 244.646C79.8974 244.646 79.0294 245.276 78.7914 246.466Z" fill="#F0F4FC"/>
<path d="M4 269H144" stroke="#11284A"/>
<path d="M7.458 297.25V289.172L5.792 290.642H4.798V289.088H5.568L7.444 287.45H8.872V297.25H7.458ZM15.6387 300.456L17.0387 297.194L13.9867 290.04H15.5547L17.8227 295.57L19.9927 290.04H21.6027L17.2067 300.456H15.6387ZM25.9464 297.376C23.7344 297.376 22.2924 295.752 22.2924 293.652C22.2924 291.524 23.7484 289.914 25.9324 289.914C28.0464 289.914 29.3764 291.58 29.3764 293.484V294.142H23.7064C23.8884 295.514 24.8124 296.116 25.9464 296.116C27.0944 296.116 27.8364 295.416 28.0604 294.786L29.1384 295.36C28.8304 296.158 27.8504 297.376 25.9464 297.376ZM23.7484 292.966H27.9204C27.9064 292.07 27.1504 291.146 25.9184 291.146C24.8544 291.146 23.9864 291.776 23.7484 292.966ZM33.1275 297.39C31.6855 297.39 30.6355 296.466 30.6355 295.15C30.6355 293.89 31.5175 292.98 33.1415 292.868L35.2695 292.728V292.644C35.2695 291.958 34.6395 291.174 33.4915 291.174C32.3855 291.174 31.8675 291.888 31.6855 292.42L30.5795 291.86C30.9015 290.964 31.7975 289.914 33.5055 289.914C35.5495 289.914 36.6555 291.328 36.6555 292.7V297.25H35.2695V296.424C34.8915 296.998 34.0515 297.39 33.1275 297.39ZM32.0355 295.122C32.0355 295.766 32.5675 296.158 33.2675 296.158C34.5415 296.158 35.2975 295.29 35.2975 294.352V293.904L33.2395 294.044C32.5535 294.086 32.0355 294.436 32.0355 295.122ZM38.8912 297.25V290.04H40.2912V291.328L43.0212 289.886V291.398L40.2912 292.756V297.25H38.8912Z" fill="#F0F4FC"/>
<path d="M4 315.5H144" stroke="#11284A"/>
<path d="M9.488 343.876C6.576 343.876 4.56 341.664 4.56 338.85C4.56 336.022 6.576 333.824 9.488 333.824C11.574 333.824 13.142 334.93 13.884 336.582L12.582 337.282C12.078 336.092 10.972 335.252 9.488 335.252C7.402 335.252 6.058 336.862 6.058 338.85C6.058 340.838 7.416 342.448 9.488 342.448C11.014 342.448 12.148 341.552 12.638 340.292L13.926 340.978C13.226 342.7 11.63 343.876 9.488 343.876ZM18.3223 343.876C16.6703 343.876 15.5363 342.672 15.5363 341.104V336.54H16.9363V340.796C16.9363 341.916 17.6783 342.56 18.6163 342.56C19.5823 342.56 20.3243 341.86 20.3243 340.796V336.54H21.7243V342.308L22.2283 343.75H20.7303L20.4503 342.994C20.1423 343.4 19.4283 343.876 18.3223 343.876ZM26.4935 343.876C24.6455 343.876 23.6935 342.798 23.4135 341.93L24.5895 341.342C24.7575 341.916 25.4155 342.63 26.5215 342.63C27.4735 342.63 28.0195 342.252 28.0195 341.72C28.0195 341.3 27.7255 340.992 27.1095 340.866L25.7095 340.6C24.5895 340.376 23.8055 339.732 23.8055 338.556C23.8055 337.31 24.9395 336.414 26.5495 336.414C28.3415 336.414 29.1255 337.422 29.3775 338.192L28.2155 338.752C28.1035 338.22 27.5295 337.632 26.5355 337.632C25.6815 337.632 25.1635 338.024 25.1635 338.528C25.1635 338.99 25.4995 339.242 26.0175 339.34L27.4875 339.634C28.7755 339.886 29.4475 340.684 29.4475 341.678C29.4475 342.98 28.2855 343.876 26.4935 343.876ZM31.7109 343.75V337.772H30.4229V336.54H31.7529V334.678H33.1109V336.54H34.9729V337.772H33.1109V342.434H35.0009V343.75H31.7109ZM40.0044 343.876C37.7924 343.876 36.2104 342.308 36.2104 340.152C36.2104 337.996 37.8064 336.414 40.0044 336.414C42.2024 336.414 43.7984 337.996 43.7984 340.152C43.7984 342.294 42.2164 343.876 40.0044 343.876ZM37.6244 340.152C37.6244 341.58 38.6744 342.588 40.0044 342.588C41.3484 342.588 42.3844 341.58 42.3844 340.152C42.3844 338.724 41.3484 337.716 40.0044 337.716C38.6604 337.716 37.6244 338.724 37.6244 340.152ZM45.5494 343.75V336.54H46.9494V337.45C47.2854 336.82 48.0414 336.414 48.9094 336.414C49.8754 336.414 50.6594 336.862 51.1354 337.534C51.4994 337.058 52.2134 336.414 53.4454 336.414C55.1114 336.414 56.2874 337.618 56.2874 339.13V343.75H54.8874V339.466C54.8874 338.388 54.2014 337.73 53.2634 337.73C52.2974 337.73 51.6114 338.444 51.6114 339.466V343.75H50.2114V339.466C50.2114 338.388 49.5394 337.73 48.5874 337.73C47.6214 337.73 46.9494 338.444 46.9494 339.466V343.75H45.5494Z" fill="#F0F4FC"/>
<path d="M130.666 337.084L133.41 339.828C133.736 340.153 134.263 340.153 134.589 339.828L137.333 337.084" stroke="#F0F4FC" stroke-width="1.5" stroke-linecap="round" stroke-linejoin="round"/>
<defs>
<clipPath id="clip0_67842_141862">
<rect width="14.6667" height="14.6667" fill="white" transform="translate(126.666 5.8457)"/>
</clipPath>
</defs>
</svg>
